<mxfile host="Electron" agent="Mozilla/5.0 (Windows NT 10.0; Win64; x64) AppleWebKit/537.36 (KHTML, like Gecko) draw.io/28.1.2 Chrome/138.0.7204.243 Electron/37.4.0 Safari/537.36" version="28.1.2">
  <diagram name="Page-1" id="QMdUB24gyngMLC8GeznN">
    <mxGraphModel dx="1213" dy="876" grid="1" gridSize="10" guides="1" tooltips="1" connect="1" arrows="1" fold="1" page="1" pageScale="1" pageWidth="1100" pageHeight="850" math="0" shadow="0">
      <root>
        <mxCell id="0" />
        <mxCell id="1" parent="0" />
        <mxCell id="yx5AUqAAclRlnS1HMDBT-1" value="crm_cust_info" style="swimlane;fontStyle=0;childLayout=stackLayout;horizontal=1;startSize=30;horizontalStack=0;resizeParent=1;resizeParentMax=0;resizeLast=0;collapsible=1;marginBottom=0;whiteSpace=wrap;html=1;rounded=1;fontSize=19;" vertex="1" parent="1">
          <mxGeometry x="380" y="410" width="170" height="90" as="geometry" />
        </mxCell>
        <mxCell id="yx5AUqAAclRlnS1HMDBT-2" value="cst_id" style="text;strokeColor=none;fillColor=none;align=left;verticalAlign=middle;spacingLeft=4;spacingRight=4;overflow=hidden;points=[[0,0.5],[1,0.5]];portConstraint=eastwest;rotatable=0;whiteSpace=wrap;html=1;fontSize=19;" vertex="1" parent="yx5AUqAAclRlnS1HMDBT-1">
          <mxGeometry y="30" width="170" height="30" as="geometry" />
        </mxCell>
        <mxCell id="yx5AUqAAclRlnS1HMDBT-20" value="cst_key" style="text;strokeColor=none;fillColor=none;align=left;verticalAlign=middle;spacingLeft=4;spacingRight=4;overflow=hidden;points=[[0,0.5],[1,0.5]];portConstraint=eastwest;rotatable=0;whiteSpace=wrap;html=1;fontSize=19;" vertex="1" parent="yx5AUqAAclRlnS1HMDBT-1">
          <mxGeometry y="60" width="170" height="30" as="geometry" />
        </mxCell>
        <mxCell id="yx5AUqAAclRlnS1HMDBT-5" value="&lt;font style=&quot;font-size: 18px;&quot;&gt;Customer Information&lt;/font&gt;" style="text;html=1;align=center;verticalAlign=middle;whiteSpace=wrap;rounded=0;" vertex="1" parent="1">
          <mxGeometry x="380" y="370" width="180" height="30" as="geometry" />
        </mxCell>
        <mxCell id="yx5AUqAAclRlnS1HMDBT-6" value="crm_prod_info" style="swimlane;fontStyle=0;childLayout=stackLayout;horizontal=1;startSize=30;horizontalStack=0;resizeParent=1;resizeParentMax=0;resizeLast=0;collapsible=1;marginBottom=0;whiteSpace=wrap;html=1;rounded=1;fontSize=19;" vertex="1" parent="1">
          <mxGeometry x="385" y="200" width="170" height="60" as="geometry" />
        </mxCell>
        <mxCell id="yx5AUqAAclRlnS1HMDBT-7" value="prd_key" style="text;strokeColor=none;fillColor=none;align=left;verticalAlign=middle;spacingLeft=4;spacingRight=4;overflow=hidden;points=[[0,0.5],[1,0.5]];portConstraint=eastwest;rotatable=0;whiteSpace=wrap;html=1;fontSize=19;" vertex="1" parent="yx5AUqAAclRlnS1HMDBT-6">
          <mxGeometry y="30" width="170" height="30" as="geometry" />
        </mxCell>
        <mxCell id="yx5AUqAAclRlnS1HMDBT-8" value="&lt;font style=&quot;font-size: 18px;&quot;&gt;Current &amp;amp; History Product Information&lt;/font&gt;" style="text;html=1;align=center;verticalAlign=middle;whiteSpace=wrap;rounded=0;" vertex="1" parent="1">
          <mxGeometry x="385" y="160" width="180" height="30" as="geometry" />
        </mxCell>
        <mxCell id="yx5AUqAAclRlnS1HMDBT-9" value="crm_sales_details" style="swimlane;fontStyle=0;childLayout=stackLayout;horizontal=1;startSize=30;horizontalStack=0;resizeParent=1;resizeParentMax=0;resizeLast=0;collapsible=1;marginBottom=0;whiteSpace=wrap;html=1;rounded=1;fontSize=19;" vertex="1" parent="1">
          <mxGeometry x="30" y="280" width="170" height="90" as="geometry" />
        </mxCell>
        <mxCell id="yx5AUqAAclRlnS1HMDBT-10" value="prd_key" style="text;strokeColor=none;fillColor=none;align=left;verticalAlign=middle;spacingLeft=4;spacingRight=4;overflow=hidden;points=[[0,0.5],[1,0.5]];portConstraint=eastwest;rotatable=0;whiteSpace=wrap;html=1;fontSize=19;" vertex="1" parent="yx5AUqAAclRlnS1HMDBT-9">
          <mxGeometry y="30" width="170" height="30" as="geometry" />
        </mxCell>
        <mxCell id="yx5AUqAAclRlnS1HMDBT-14" value="cst_id" style="text;strokeColor=none;fillColor=none;align=left;verticalAlign=middle;spacingLeft=4;spacingRight=4;overflow=hidden;points=[[0,0.5],[1,0.5]];portConstraint=eastwest;rotatable=0;whiteSpace=wrap;html=1;fontSize=19;" vertex="1" parent="yx5AUqAAclRlnS1HMDBT-9">
          <mxGeometry y="60" width="170" height="30" as="geometry" />
        </mxCell>
        <mxCell id="yx5AUqAAclRlnS1HMDBT-11" value="&lt;font style=&quot;font-size: 18px;&quot;&gt;Sales Details&lt;/font&gt;" style="text;html=1;align=center;verticalAlign=middle;whiteSpace=wrap;rounded=0;" vertex="1" parent="1">
          <mxGeometry x="30" y="240" width="180" height="30" as="geometry" />
        </mxCell>
        <mxCell id="yx5AUqAAclRlnS1HMDBT-15" style="edgeStyle=orthogonalEdgeStyle;rounded=0;orthogonalLoop=1;jettySize=auto;html=1;entryX=0;entryY=0.5;entryDx=0;entryDy=0;" edge="1" parent="1" source="yx5AUqAAclRlnS1HMDBT-10" target="yx5AUqAAclRlnS1HMDBT-7">
          <mxGeometry relative="1" as="geometry">
            <mxPoint x="350" y="325" as="targetPoint" />
          </mxGeometry>
        </mxCell>
        <mxCell id="yx5AUqAAclRlnS1HMDBT-16" style="edgeStyle=orthogonalEdgeStyle;rounded=0;orthogonalLoop=1;jettySize=auto;html=1;entryX=0;entryY=0.5;entryDx=0;entryDy=0;" edge="1" parent="1" source="yx5AUqAAclRlnS1HMDBT-14" target="yx5AUqAAclRlnS1HMDBT-2">
          <mxGeometry relative="1" as="geometry" />
        </mxCell>
        <mxCell id="yx5AUqAAclRlnS1HMDBT-17" value="erp_cust_az12" style="swimlane;fontStyle=0;childLayout=stackLayout;horizontal=1;startSize=30;horizontalStack=0;resizeParent=1;resizeParentMax=0;resizeLast=0;collapsible=1;marginBottom=0;whiteSpace=wrap;html=1;rounded=1;fontSize=19;" vertex="1" parent="1">
          <mxGeometry x="865" y="395" width="170" height="60" as="geometry" />
        </mxCell>
        <mxCell id="yx5AUqAAclRlnS1HMDBT-18" value="cid" style="text;strokeColor=none;fillColor=none;align=left;verticalAlign=middle;spacingLeft=4;spacingRight=4;overflow=hidden;points=[[0,0.5],[1,0.5]];portConstraint=eastwest;rotatable=0;whiteSpace=wrap;html=1;fontSize=19;" vertex="1" parent="yx5AUqAAclRlnS1HMDBT-17">
          <mxGeometry y="30" width="170" height="30" as="geometry" />
        </mxCell>
        <mxCell id="yx5AUqAAclRlnS1HMDBT-19" value="&lt;font style=&quot;font-size: 18px;&quot;&gt;Extra customer information&lt;/font&gt;" style="text;html=1;align=center;verticalAlign=middle;whiteSpace=wrap;rounded=0;" vertex="1" parent="1">
          <mxGeometry x="855" y="350" width="180" height="30" as="geometry" />
        </mxCell>
        <mxCell id="yx5AUqAAclRlnS1HMDBT-21" value="erp_loc_a101" style="swimlane;fontStyle=0;childLayout=stackLayout;horizontal=1;startSize=30;horizontalStack=0;resizeParent=1;resizeParentMax=0;resizeLast=0;collapsible=1;marginBottom=0;whiteSpace=wrap;html=1;rounded=1;fontSize=19;" vertex="1" parent="1">
          <mxGeometry x="860" y="530" width="170" height="60" as="geometry" />
        </mxCell>
        <mxCell id="yx5AUqAAclRlnS1HMDBT-22" value="cid" style="text;strokeColor=none;fillColor=none;align=left;verticalAlign=middle;spacingLeft=4;spacingRight=4;overflow=hidden;points=[[0,0.5],[1,0.5]];portConstraint=eastwest;rotatable=0;whiteSpace=wrap;html=1;fontSize=19;" vertex="1" parent="yx5AUqAAclRlnS1HMDBT-21">
          <mxGeometry y="30" width="170" height="30" as="geometry" />
        </mxCell>
        <mxCell id="yx5AUqAAclRlnS1HMDBT-23" value="&lt;font style=&quot;font-size: 18px;&quot;&gt;Customer location&lt;/font&gt;" style="text;html=1;align=center;verticalAlign=middle;whiteSpace=wrap;rounded=0;" vertex="1" parent="1">
          <mxGeometry x="855" y="500" width="180" height="30" as="geometry" />
        </mxCell>
        <mxCell id="yx5AUqAAclRlnS1HMDBT-24" value="erp_px_cat_g1v2" style="swimlane;fontStyle=0;childLayout=stackLayout;horizontal=1;startSize=30;horizontalStack=0;resizeParent=1;resizeParentMax=0;resizeLast=0;collapsible=1;marginBottom=0;whiteSpace=wrap;html=1;rounded=1;fontSize=19;" vertex="1" parent="1">
          <mxGeometry x="860" y="200" width="170" height="60" as="geometry" />
        </mxCell>
        <mxCell id="yx5AUqAAclRlnS1HMDBT-25" value="id" style="text;strokeColor=none;fillColor=none;align=left;verticalAlign=middle;spacingLeft=4;spacingRight=4;overflow=hidden;points=[[0,0.5],[1,0.5]];portConstraint=eastwest;rotatable=0;whiteSpace=wrap;html=1;fontSize=19;" vertex="1" parent="yx5AUqAAclRlnS1HMDBT-24">
          <mxGeometry y="30" width="170" height="30" as="geometry" />
        </mxCell>
        <mxCell id="yx5AUqAAclRlnS1HMDBT-26" value="&lt;font style=&quot;font-size: 18px;&quot;&gt;Category information&lt;/font&gt;" style="text;html=1;align=center;verticalAlign=middle;whiteSpace=wrap;rounded=0;" vertex="1" parent="1">
          <mxGeometry x="860" y="160" width="180" height="30" as="geometry" />
        </mxCell>
        <mxCell id="yx5AUqAAclRlnS1HMDBT-28" style="edgeStyle=orthogonalEdgeStyle;rounded=0;orthogonalLoop=1;jettySize=auto;html=1;entryX=0;entryY=0.5;entryDx=0;entryDy=0;" edge="1" parent="1" source="yx5AUqAAclRlnS1HMDBT-20" target="yx5AUqAAclRlnS1HMDBT-22">
          <mxGeometry relative="1" as="geometry" />
        </mxCell>
        <mxCell id="yx5AUqAAclRlnS1HMDBT-29" style="edgeStyle=orthogonalEdgeStyle;rounded=0;orthogonalLoop=1;jettySize=auto;html=1;" edge="1" parent="1" source="yx5AUqAAclRlnS1HMDBT-7" target="yx5AUqAAclRlnS1HMDBT-25">
          <mxGeometry relative="1" as="geometry" />
        </mxCell>
        <mxCell id="yx5AUqAAclRlnS1HMDBT-30" value="&lt;font style=&quot;font-size: 30px;&quot;&gt;&lt;b&gt;Integration Diagram&lt;/b&gt;&lt;/font&gt;" style="text;html=1;align=left;verticalAlign=middle;whiteSpace=wrap;rounded=0;" vertex="1" parent="1">
          <mxGeometry x="40" y="40" width="320" height="30" as="geometry" />
        </mxCell>
        <mxCell id="yx5AUqAAclRlnS1HMDBT-31" value="" style="rounded=1;whiteSpace=wrap;html=1;fillColor=none;dashed=1;" vertex="1" parent="1">
          <mxGeometry x="10" y="120" width="600" height="520" as="geometry" />
        </mxCell>
        <mxCell id="yx5AUqAAclRlnS1HMDBT-34" value="CRM" style="rounded=1;whiteSpace=wrap;html=1;" vertex="1" parent="1">
          <mxGeometry x="230" y="100" width="120" height="40" as="geometry" />
        </mxCell>
        <mxCell id="yx5AUqAAclRlnS1HMDBT-35" value="ERP" style="rounded=1;whiteSpace=wrap;html=1;fillColor=default;" vertex="1" parent="1">
          <mxGeometry x="885" y="90" width="120" height="30" as="geometry" />
        </mxCell>
        <mxCell id="yx5AUqAAclRlnS1HMDBT-36" value="" style="edgeStyle=orthogonalEdgeStyle;rounded=0;orthogonalLoop=1;jettySize=auto;html=1;entryX=0.214;entryY=0.615;entryDx=0;entryDy=0;entryPerimeter=0;" edge="1" parent="1" source="yx5AUqAAclRlnS1HMDBT-20" target="yx5AUqAAclRlnS1HMDBT-32">
          <mxGeometry relative="1" as="geometry">
            <mxPoint x="550" y="485" as="sourcePoint" />
            <mxPoint x="879" y="485" as="targetPoint" />
          </mxGeometry>
        </mxCell>
        <mxCell id="yx5AUqAAclRlnS1HMDBT-32" value="" style="rounded=1;whiteSpace=wrap;html=1;fillColor=none;dashed=1;" vertex="1" parent="1">
          <mxGeometry x="810" y="120" width="280" height="520" as="geometry" />
        </mxCell>
        <mxCell id="yx5AUqAAclRlnS1HMDBT-37" value="&lt;b&gt;Products&lt;/b&gt;" style="text;html=1;strokeColor=#6F0000;fillColor=#a20025;align=center;verticalAlign=middle;whiteSpace=wrap;overflow=hidden;fontColor=#ffffff;" vertex="1" parent="1">
          <mxGeometry x="390" y="270" width="160" height="20" as="geometry" />
        </mxCell>
        <mxCell id="yx5AUqAAclRlnS1HMDBT-38" value="&lt;b&gt;Products&lt;/b&gt;" style="text;html=1;strokeColor=#6F0000;fillColor=#a20025;align=center;verticalAlign=middle;whiteSpace=wrap;overflow=hidden;fontColor=#ffffff;" vertex="1" parent="1">
          <mxGeometry x="865" y="270" width="160" height="20" as="geometry" />
        </mxCell>
        <mxCell id="yx5AUqAAclRlnS1HMDBT-39" value="&lt;b&gt;Customers&lt;/b&gt;" style="text;html=1;strokeColor=#2D7600;fillColor=#60a917;align=center;verticalAlign=middle;whiteSpace=wrap;overflow=hidden;fontColor=#ffffff;" vertex="1" parent="1">
          <mxGeometry x="385" y="505" width="160" height="20" as="geometry" />
        </mxCell>
        <mxCell id="yx5AUqAAclRlnS1HMDBT-40" value="&lt;b&gt;Customers&lt;/b&gt;" style="text;html=1;strokeColor=#2D7600;fillColor=#60a917;align=center;verticalAlign=middle;whiteSpace=wrap;overflow=hidden;fontColor=#ffffff;" vertex="1" parent="1">
          <mxGeometry x="875" y="460" width="160" height="20" as="geometry" />
        </mxCell>
        <mxCell id="yx5AUqAAclRlnS1HMDBT-41" value="&lt;b&gt;Customers&lt;/b&gt;" style="text;html=1;strokeColor=#2D7600;fillColor=#60a917;align=center;verticalAlign=middle;whiteSpace=wrap;overflow=hidden;fontColor=#ffffff;" vertex="1" parent="1">
          <mxGeometry x="865" y="600" width="160" height="20" as="geometry" />
        </mxCell>
        <mxCell id="yx5AUqAAclRlnS1HMDBT-42" value="&lt;b&gt;Sales&lt;/b&gt;" style="text;html=1;strokeColor=#001DBC;fillColor=#0050ef;align=center;verticalAlign=middle;whiteSpace=wrap;overflow=hidden;fontColor=#ffffff;" vertex="1" parent="1">
          <mxGeometry x="35" y="375" width="160" height="20" as="geometry" />
        </mxCell>
      </root>
    </mxGraphModel>
  </diagram>
</mxfile>
